<?xml version="1.0" encoding="utf-8"?>
<!-- Generator: Adobe Illustrator 16.0.0, SVG Export Plug-In . SVG Version: 6.00 Build 0)  -->
<!DOCTYPE svg PUBLIC "-//W3C//DTD SVG 1.1//EN" "http://www.w3.org/Graphics/SVG/1.1/DTD/svg11.dtd">
<svg version="1.1" id="Layer_1" xmlns="http://www.w3.org/2000/svg" xmlns:xlink="http://www.w3.org/1999/xlink" x="0px" y="0px"
	 width="266.666px" height="266.053px" viewBox="0 0 266.666 266.053" enable-background="new 0 0 266.666 266.053"
	 xml:space="preserve">
<g>
	<path fill="#FFFFFF" d="M98.579,119.452c8.388-0.241,16.782-0.355,25.173-0.341c14.849,0.026,29.697,0.087,44.543,0.338
		c8.713,0.146,14.117,3.566,12.884,13.592c-0.561,4.533-0.097,9.19-0.097,13.793c0.828,0.013,1.655,0.025,2.481,0.041
		c0.336-1.05,0.805-2.077,0.99-3.155c4.483-26.044,8.532-52.174,13.616-78.101c1.824-9.293-1.048-13.278-9.782-14.391
		c-2.873-0.364-5.714-1.247-8.582-1.312c-26.111-0.597-52.228-0.449-78.343-0.443c-8.615,0.002-17.251,1.084-25.836,2.444
		c-6.057,0.96-8.848,3.996-7.213,10.787c1.956,8.127,2.91,16.495,4.321,24.753c3.383,19.795,6.781,39.588,10.172,59.382
		c0.945-0.017,1.889-0.032,2.833-0.049c0-4.594,0.463-9.245-0.093-13.771C84.411,122.961,89.9,119.702,98.579,119.452z"/>
	<path fill="#FFFFFF" d="M133.333,0C59.813,0,0,59.813,0,133.334c0,69,52.692,125.836,119.938,132.659
		c1.495,0.15,13.169,0.654,17.351-8.241c4.44-9.443,3.09-39.734,3.744-60.734c-5.267,0-10.232,0-15.258,0
		c1.102,17,2.511,32.688,3.303,48.721c0.382,7.734-3.671,7.048-4.88,6.955C62.407,248.01,13.56,196.276,13.56,133.307
		c0-66.045,53.73-119.761,119.773-119.761s119.773,53.737,119.773,119.781c0,48.041-28.435,89.549-69.354,108.611
		c-0.175,0.081-0.524,0.243-0.524,0.243l4.938-22.581l-38.368,46.014c7.16-0.888,57.238-0.257,57.238-0.257l-20.58-9.772
		c0,0,0.566-0.249,0.852-0.375c46.705-20.752,79.358-67.56,79.358-121.875C266.666,59.813,206.854,0,133.333,0z"/>
</g>
<circle fill="#FFFFFF" cx="111.696" cy="148.777" r="8.113"/>
<circle fill="#FFFFFF" cx="153.97" cy="148.777" r="8.113"/>
<polygon fill="#FFFFFF" points="137.86,173.862 133.345,177.618 133.333,177.596 133.321,177.618 128.806,173.862 117.282,179.162 
	133.333,183.484 149.384,179.162 "/>
</svg>
